<svg id="Homepage" xmlns="http://www.w3.org/2000/svg" viewBox="0 0 301.55 27.34"><defs><style>.cls-1{fill:#404040;}</style></defs><title>City of Denton Type Horizontal </title><path class="cls-1" d="M13.28.33c6.29,0,9.51,3.44,9.51,3.44L21,6.51a11.92,11.92,0,0,0-7.55-2.85c-5.85,0-9.66,4.44-9.66,10S7.66,24,13.47,24a11.82,11.82,0,0,0,8.07-3.4l2,2.63a14,14,0,0,1-10.14,4.14C5.51,27.34,0,21.35,0,13.69A13,13,0,0,1,13.28.33Z"/><path class="cls-1" d="M27.5.78h3.66V26.9H27.5Z"/><path class="cls-1" d="M43.37,4h-9V.78H56V4H47V26.9H43.37Z"/><path class="cls-1" d="M66.51,15.84,57.74.78h4.14l4.85,8.58c.81,1.44,1.59,3.29,1.59,3.29h.07s.78-1.81,1.59-3.29L74.77.78h4.14L70.18,15.84V26.9H66.51Z"/><path class="cls-1" d="M103.92.33a13.17,13.17,0,0,1,13.4,13.32,13.42,13.42,0,1,1-26.83,0A13.2,13.2,0,0,1,103.92.33Zm0,23.64c5.33,0,9.62-4.44,9.62-10.32a9.65,9.65,0,1,0-19.28,0C94.26,19.54,98.59,24,103.92,24Z"/><path class="cls-1" d="M122.18.78h14.39V4H125.84v8.58H135v3.18h-9.14V26.9h-3.66Z"/><path class="cls-1" d="M150.52.44h9.4c8.33,0,13.65,4.85,13.65,13.17S168.25,26.9,159.92,26.9h-9.4Zm9.14,20.91c4.48,0,7.22-2.66,7.22-7.73S164,6,159.66,6H157V21.35Z"/><path class="cls-1" d="M177.68.44h16.58V6h-10.1V10.8h8.07v5.55h-8.07v5h10.62V26.9h-17.1Z"/><path class="cls-1" d="M199.17.44h6.55L213,12.8a47.41,47.41,0,0,1,2.22,4.51h.07s-.3-2.85-.3-4.51V.44h6.48V26.9H215l-7.36-12.32a47.35,47.35,0,0,1-2.22-4.51h-.07s.3,2.85.3,4.51V26.9h-6.48Z"/><path class="cls-1" d="M232.16,6h-8V.44h22.53V6h-8V26.9h-6.48Z"/><path class="cls-1" d="M261.33,0c8,0,13.84,5.92,13.84,13.51a13.84,13.84,0,0,1-27.68,0C247.49,5.92,253.34,0,261.33,0Zm0,21.42c4,0,7.14-3.4,7.14-7.92a7.15,7.15,0,1,0-14.28,0C254.19,18,257.37,21.42,261.33,21.42Z"/><path class="cls-1" d="M279.21.44h6.55l7.33,12.36a47.41,47.41,0,0,1,2.22,4.51h.07s-.3-2.85-.3-4.51V.44h6.48V26.9H295l-7.36-12.32a47.35,47.35,0,0,1-2.22-4.51h-.07s.3,2.85.3,4.51V26.9h-6.48Z"/></svg>